<?xml version="1.0" encoding="UTF-8" standalone="no"?>
<!-- Created with Inkscape (http://www.inkscape.org/) -->

<svg
   xmlns:dc="http://purl.org/dc/elements/1.1/"
   xmlns:cc="http://creativecommons.org/ns#"
   xmlns:rdf="http://www.w3.org/1999/02/22-rdf-syntax-ns#"
   xmlns:svg="http://www.w3.org/2000/svg"
   xmlns="http://www.w3.org/2000/svg"
   xmlns:sodipodi="http://sodipodi.sourceforge.net/DTD/sodipodi-0.dtd"
   xmlns:inkscape="http://www.inkscape.org/namespaces/inkscape"
   id="svg4300"
   version="1.1"
   inkscape:version="0.91 r13725"
   width="1289.2228"
   height="1008.2188"
   sodipodi:docname="magic-pony-django.svg"
   inkscape:export-filename="/home/railla/Desktop/draws/magic-pony-django.png"
   inkscape:export-xdpi="42.02"
   inkscape:export-ydpi="42.02">
  <metadata
     id="metadata4306">
    <rdf:RDF>
      <cc:Work
         rdf:about="">
        <dc:format>image/svg+xml</dc:format>
        <dc:type
           rdf:resource="http://purl.org/dc/dcmitype/StillImage" />
        <dc:title></dc:title>
      </cc:Work>
    </rdf:RDF>
  </metadata>
  <defs
     id="defs4304">
    <inkscape:path-effect
       effect="spiro"
       id="path-effect4964"
       is_visible="true" />
    <inkscape:path-effect
       effect="spiro"
       id="path-effect4960"
       is_visible="true" />
    <inkscape:path-effect
       effect="spiro"
       id="path-effect4956"
       is_visible="true" />
    <inkscape:path-effect
       effect="spiro"
       id="path-effect4952"
       is_visible="true" />
    <inkscape:path-effect
       effect="spiro"
       id="path-effect4948"
       is_visible="true" />
    <inkscape:path-effect
       effect="spiro"
       id="path-effect4944"
       is_visible="true" />
    <inkscape:path-effect
       effect="spiro"
       id="path-effect4940"
       is_visible="true" />
    <inkscape:path-effect
       effect="spiro"
       id="path-effect4936"
       is_visible="true" />
    <inkscape:path-effect
       effect="spiro"
       id="path-effect4932"
       is_visible="true" />
    <inkscape:path-effect
       effect="spiro"
       id="path-effect4928"
       is_visible="true" />
    <inkscape:path-effect
       effect="spiro"
       id="path-effect4924"
       is_visible="true" />
    <inkscape:path-effect
       effect="spiro"
       id="path-effect4920"
       is_visible="true" />
    <inkscape:path-effect
       effect="spiro"
       id="path-effect4916"
       is_visible="true" />
    <inkscape:path-effect
       effect="spiro"
       id="path-effect4912"
       is_visible="true" />
    <inkscape:path-effect
       effect="spiro"
       id="path-effect4908"
       is_visible="true" />
    <inkscape:path-effect
       effect="spiro"
       id="path-effect4904"
       is_visible="true" />
    <inkscape:path-effect
       effect="spiro"
       id="path-effect4900"
       is_visible="true" />
    <inkscape:path-effect
       effect="spiro"
       id="path-effect4896"
       is_visible="true" />
    <inkscape:path-effect
       effect="spiro"
       id="path-effect4892"
       is_visible="true" />
    <inkscape:path-effect
       effect="spiro"
       id="path-effect4888"
       is_visible="true" />
    <inkscape:path-effect
       effect="spiro"
       id="path-effect4884"
       is_visible="true" />
    <inkscape:path-effect
       effect="spiro"
       id="path-effect4880"
       is_visible="true" />
    <inkscape:path-effect
       effect="spiro"
       id="path-effect4876"
       is_visible="true" />
    <inkscape:path-effect
       effect="spiro"
       id="path-effect4872"
       is_visible="true" />
    <inkscape:path-effect
       effect="spiro"
       id="path-effect4868"
       is_visible="true" />
    <inkscape:path-effect
       effect="spiro"
       id="path-effect4864"
       is_visible="true" />
    <inkscape:path-effect
       effect="spiro"
       id="path-effect4860"
       is_visible="true" />
    <inkscape:path-effect
       effect="spiro"
       id="path-effect4856"
       is_visible="true" />
    <inkscape:path-effect
       effect="spiro"
       id="path-effect4852"
       is_visible="true" />
    <inkscape:path-effect
       effect="spiro"
       id="path-effect4848"
       is_visible="true" />
    <inkscape:path-effect
       effect="spiro"
       id="path-effect4844"
       is_visible="true" />
    <inkscape:path-effect
       effect="spiro"
       id="path-effect4836"
       is_visible="true" />
    <inkscape:path-effect
       effect="spiro"
       id="path-effect4832"
       is_visible="true" />
  </defs>
  <sodipodi:namedview
     pagecolor="#ffffff"
     bordercolor="#666666"
     borderopacity="1"
     objecttolerance="10"
     gridtolerance="10"
     guidetolerance="10"
     inkscape:pageopacity="0"
     inkscape:pageshadow="2"
     inkscape:window-width="1598"
     inkscape:window-height="869"
     id="namedview4302"
     showgrid="false"
     inkscape:zoom="0.41662241"
     inkscape:cx="363.99927"
     inkscape:cy="361.6429"
     inkscape:window-x="0"
     inkscape:window-y="0"
     inkscape:window-maximized="0"
     inkscape:current-layer="svg4300"
     fit-margin-top="2"
     fit-margin-left="2"
     fit-margin-right="2"
     fit-margin-bottom="2" />
  <g
     id="g4286"
     transform="matrix(1.7293209,0,0,1.7542323,-206.12349,-367.59321)">
    <ellipse
       cx="279.61972"
       cy="502.01407"
       rx="22.488384"
       ry="32.883957"
       id="path4276"
       style="opacity:1;fill:#020303;fill-opacity:1;fill-rule:nonzero;stroke:#000000;stroke-width:1.08000004;stroke-linecap:round;stroke-linejoin:round;stroke-miterlimit:4;stroke-dasharray:none;stroke-opacity:1" />
    <ellipse
       ry="15.062974"
       rx="7.849719"
       cy="495.64944"
       cx="275.58878"
       id="path4278"
       style="opacity:1;fill:#ffffff;fill-opacity:1;fill-rule:nonzero;stroke:#000000;stroke-width:1.08000004;stroke-linecap:round;stroke-linejoin:round;stroke-miterlimit:4;stroke-dasharray:none;stroke-opacity:1" />
  </g>
  <path
     id="path4282"
     style="fill:none;fill-rule:evenodd;stroke:#000000;stroke-width:20;stroke-linecap:round;stroke-linejoin:round;stroke-miterlimit:4;stroke-dasharray:none;stroke-opacity:1"
     d="m 290.22399,477.43491 c 58.20286,-25.69324 48.22151,-76.04839 48.22151,-76.04839 m -63.74921,66.10552 c 55.2962,-35.99443 29.82233,-76.27409 29.82233,-76.27409 m 236.32034,66.81024 c 3.32795,-10.1589 10.81554,-33.69528 4.79476,-43.03672 -4.23778,-3.8807 -10.63452,-18.2112 -32.31898,-10.35553 7.59361,-12.79678 13.59319,-22.38705 5.3534,-33.0017 -8.04413,-10.36261 -23.92242,-21.52372 -35.36817,-15.40098 9.7986,-7.16748 21.96428,-16.90349 14.03587,-26.3808 -8.68582,-10.38269 -15.88617,-15.82668 -32.05777,-11.12 14.03257,-10.29955 16.3113,-21.82127 11.45869,-28.08316 -8.09755,-10.4492 -18.21239,-12.64309 -31.27685,-3.85206 5.69236,-10.95216 6.64935,-17.27453 4.86014,-26.22439 -3.11483,-15.58075 -19.70082,-15.66046 -28.51385,-3.73587 9.42019,-12.06882 9.81092,-26.2716 7.6557,-36.7279 -3.09483,-15.01488 -26.33255,-9.58392 -35.88472,4.31109 m -23.37295,25.81566 C 354.02806,145.44293 387.05214,46.762176 497.31618,11.999812 c 17.85423,28.844393 2.98346,87.342454 -16.04086,104.167668 m -69.25509,92.19382 c 10.10736,-31.55562 43.76715,-97.43251 100.07606,-100.13858 14.88697,55.65593 -69.17562,91.0332 -81.77805,114.79299 11.27386,-13.38198 57.98606,-42.17177 80.44201,-38.03947 20.87828,39.59223 -55.17463,61.93778 -57.2005,69.65217 17.80831,-13.21254 41.29063,-27.63681 65.9072,-24.45041 16.46255,32.3054 -33.51183,53.53515 -41.30082,60.46207 18.45304,-5.16697 27.95755,-18.01868 60.95019,-19.33961 15.36173,23.08754 -29.0173,46.01864 -38.48518,57.32276 15.84125,-10.45307 38.76455,-17.99138 55.7949,-11.02815 3.50551,27.98323 -14.31623,30.9024 -33.10803,53.10081 9.8688,-9.41615 32.58041,-22.14319 46.94794,-3.1361 -1.57241,17.03147 -4.6604,29.89281 -25.04795,47.5146 11.97456,-8.60656 30.71122,-27.21657 45.60357,-10.97096 2.71078,22.90869 -23.72991,65.12311 -24.51459,70.03221 31.74473,-1.23692 53.60895,-121.65539 120.67446,-119.13295 1.17829,-0.48492 -28.5719,34.85538 -13.66832,57.83048 m 56.96078,-23.18469 c -35.0275,4.6296 -62.67886,52.64302 -67.01296,82.54377 -4.44047,33.82729 -35.30713,56.04377 -63.59032,56.17725 -60.36315,0.28488 -121.70576,-78.98191 -136.84266,-118.60946 M 734.58975,387.548 c -47.95508,-1.6852 -69.24099,36.17659 -91.96172,65.8773 -24.23927,31.68574 -55.81853,41.04526 -86.91915,22.79482 -32.05774,-21.13974 -82.78205,-64.08754 -101.92687,-92.61871 m 168.47054,198.8976 C 559.69327,570.93245 503.10186,525.40183 477.10119,472.64909 463.34715,443.91093 460.21727,400.94959 452.94246,380.17283 435.31702,329.8348 420.15573,268.08011 371.46381,251.59943 m -23.48505,-39.05497 c -39.14756,6.93529 -49.69802,40.00461 -53.61271,70.00654 -5.16189,39.56045 -4.19771,74.72067 8.27853,111.61373 0.47462,1.37649 -1.30361,-12.85634 0.78919,-24.98725 1.25177,-7.25587 5.90847,-34.33971 13.8754,-33.53352 3.77053,0.38154 -2.57796,32.7542 -1.06128,42.59957 0.37784,2.45268 11.38561,-28.38597 19.37348,-29.42579 3.426,-0.44597 -2.53715,36.19258 -4.2439,37.55586 m -43.16523,12.62457 c -33.29668,-28.45727 -26.55869,-67.9782 -22.46349,-99.96428 6.82604,-32.15026 12.57434,-79.83155 48.89487,-93.90986 36.43492,-14.12263 56.07017,36.90271 56.90025,53.91681 5.36965,110.06119 -35.70162,127.22024 -27.99986,132.19322 7.09448,-19.90034 28.37288,-19.22532 60.06427,13.51615 33.77712,34.89631 41.73194,90.34975 66.70833,122.32818 29.88779,38.26675 100.04249,71.69709 142.61071,58.77293 80.24296,-24.3626 72.67794,-72.50102 81.40683,-127.66605 2.68623,-16.57884 7.19336,-33.25282 16.70989,-47.09151 6.77413,-9.85075 15.98716,-18.01088 26.58392,-23.54576 m -47.85105,104.8166 c 12.90111,-1.06409 26.05198,1.04005 37.97703,6.07632 12.44584,5.25622 23.5296,13.70099 31.9007,24.3053 M 947.59226,314.53884 c -2.25246,30.84722 -34.61445,68.66939 -60.35545,86.87545 -26.11516,18.4707 -63.38917,48.54923 -54.13023,90.99305 m 55.81265,-171.35715 c -20.7481,31.74151 -64.89904,47.65915 -86.23406,75.85727 -11.15199,15.10809 -25.7066,43.76682 -28.89455,62.27244 -2.66664,15.47951 -3.19697,31.32554 -1.57128,46.94871 m -38.30625,-11.97254 c 2.6714,-40.07678 7.3977,-74.67369 32.46697,-102.96049 37.12775,-38.28391 63.31813,-28.1807 89.78266,-41.17729 10.54225,-5.2561 31.88299,-21.81058 37.90779,-38.87863 15.67283,-44.40059 48.79845,-95.06483 73.40784,-82.327 -28.73536,33.43146 -17.36448,45.46706 -20.92849,112.94689 -1.39585,22.34955 -6.96862,47.46922 -17.99424,68.25509 -15.76195,29.71497 -38.64606,58.09237 -66.35861,76.02173 m -123.12378,75.25352 c 13.18611,-21.10107 39.85589,-70.65315 67.98991,-76.61294 6.2058,36.51192 -3.72295,46.02781 -23.30152,74.63869 35.01798,-36.54446 39.58011,-61.59573 77.78621,-72.88126 11.95033,32.6515 -6.23522,55.25227 -19.35596,77.00382 21.44806,-26.22956 58.04176,-84.48845 82.28374,-84.20991 15.41295,23.16456 -18.77595,64.02096 -31.79857,89.58067 34.77833,-39.21053 52.10462,-81.03637 88.08052,-87.00636 7.12993,29.85727 -16.0525,60.54296 -33.5507,82.83573 30.1701,-32.73958 66.36164,-87.94437 106.42004,-98.37277 -4.314,34.89082 -18.3222,68.80778 -37.4223,95.02433 32.5871,-45.40454 74.4208,-90.69143 124.4286,-101.59956 l -20.1818,62.51868 M 700.40373,565.5865 c 16.28672,-0.81506 30.96054,-8.46436 38.20437,2.03136 3.95635,5.73242 -1.50519,5.89447 -6.36396,19.90276 15.14289,-16.83756 39.45801,-34.53616 54.84676,-22.19979 9.30464,7.45905 -5.89613,26.74414 -5.88681,35.28839 14.6643,-22.67309 35.33373,-42.66659 54.96808,-33.85815 11.65358,5.22808 4.4305,25.38911 6.68296,37.73046 11.49007,-18.40428 41.26059,-43.40147 58.22489,-29.72431 10.04595,8.09937 -8.47068,28.85441 -9.88802,37.42877 23.54533,-25.57829 48.35906,-55.15794 68.94606,-38.7025 11.57,9.24804 -4.7096,28.59755 -12.6792,42.58818 31.6093,-32.74123 44.00113,-60.93916 68.07934,-47.35887 11.5907,6.53729 4.3582,25.38613 -2.556,39.8398 13.8758,-26.77468 44.8011,-61.22929 74.3643,-53.54571 7.9789,2.07374 11.7517,9.31367 10.4937,22.39529 m -10.7415,-24.70551 c 19.4367,-22.42466 42.8172,-41.42134 68.7458,-55.85593 36.9546,-20.57284 79.0866,-31.75832 121.3792,-32.22458 -35.045,52.34278 -81.0906,97.28321 -134.2691,131.04661 -28.7104,18.22845 -59.4445,33.21454 -91.3029,45.11441 -54.37731,20.3112 -111.87934,31.58852 -169.71615,36.52119 -44.43446,3.78963 -89.5601,3.83715 -133.19491,-5.37077 -28.47182,-6.00819 -56.36207,-16.06494 -80.56144,-32.22457 -13.1195,-8.76082 -25.07302,-19.26543 -35.44704,-31.15043 m 155.75212,192.54185 29.27066,-23.8999 m 44.84587,32.22458 c -3.21845,4.88931 -7.22416,9.25917 -11.81568,12.88983 -9.12691,7.21692 -20.59575,11.42217 -32.22458,11.81568 -9.89164,-12.13439 -20.57371,-23.62435 -31.95603,-34.37288 -26.6767,-25.19128 -57.21978,-46.28054 -90.22882,-62.30085 m 142.59376,48.06832 c 14.2153,-8.53551 25.15417,-19.34665 32.60587,-32.85817 6.57698,-11.92545 9.85034,-25.71178 9.17331,-39.81341 m -93.33851,-35.54928 138.56568,52.63347 c 2.20682,16.56875 -0.83918,33.79769 -8.59322,48.6054 -8.91622,17.02711 -24.05315,30.70856 -41.89195,37.86388 -24.91431,-19.9249 -51.04261,-38.33163 -78.19179,-55.08415 -21.23423,-13.10268 -43.09258,-25.19385 -65.47612,-36.21881 m 4.85278,-2.04499 c -17.91354,7.29058 -36.28769,13.44921 -54.97645,18.42695 -20.17128,5.37261 -40.70895,9.36919 -61.42297,11.95276 M 427.54227,872.17104 c -9.14547,-7.70399 -19.05967,-17.11956 -26.62818,-27.34678 -6.77225,-9.15123 -12.37621,-19.9028 -16.43714,-29.93821 m 145.73663,174.78684 c -7.76191,-26.3134 -33.56246,-53.08436 -60.84434,-64.37716 -26.47309,-10.95802 -63.92847,-13.54086 -85.91882,2.46557 m 164.42369,-4.482 C 536.72574,905.16148 520.46031,890.23073 501.4565,880.67061 480.46282,870.10945 456.19393,866.17817 432.93975,869.57167 M 634.88043,706.30048 c -16.90528,39.05186 -33.03632,78.43887 -48.38046,118.1301 -22.87138,59.16222 -38.59357,106.6991 -57.93084,167.10885 -17.8731,9.25777 -58.53237,3.27155 -84.68448,-7.65586 -25.31412,-10.57727 -54.10901,-29.80359 -62.87501,-53.11196 0,0 76.00277,-96.3927 111.28012,-146.57944 18.04931,-25.67755 51.2877,-78.96584 51.2877,-78.96584 M 385.67704,924.35345 c -13.93822,-4.22025 -26.35876,-13.28489 -34.62847,-25.27222 -10.53489,-15.27081 -14.06115,-35.18083 -9.41179,-53.14092 34.82575,-30.52694 74.57344,-55.7113 108.29708,-87.63623 17.74467,-16.79821 32.9186,-33.03083 49.16341,-54.37314 m -240.42219,59.36598 c 45.24474,-12.96762 85.13991,-33.34766 120.2885,-64.64977 34.43184,-30.6638 57.59572,-71.39071 59.2278,-123.05823 -2.31845,41.18838 -13.8027,72.90114 -40.03086,104.94638 20.5023,-3.17996 51.60876,-2.00002 70.85549,5.74723 20.86679,8.39936 39.18478,23.01768 52.00425,41.50101 M 178.72108,284.71946 C 153.2553,253.37708 120.2372,199.04237 95.65585,222.95098 c -31.142151,30.28987 1.04521,116.56237 28.60006,136.87606 m 143.80757,-71.9473 c -24.32279,1.65137 -56.65159,19.80074 -74.76746,55.03888 -14.05442,27.33799 -32.1923,51.17966 -70.62249,65.23881 M 284.21562,233.22927 c -42.71395,8.66382 -92.47973,34.74153 -117.71922,68.62029 -18.88,26.01085 -12.91774,57.07321 -74.435491,92.43937 M 259.03816,335.88464 c -15.21227,19.02315 -39.11708,56.68771 -63.10003,72.21044 -29.61018,19.1649 -92.22778,15.47658 -110.068144,-20.92494 -18.643338,-43.31143 -87.3312339,-26.71895 -102.013893,-10.66508 66.990285,9.40608 50.753651,45.39094 90.978829,78.50281 35.293438,27.26645 96.381758,16.21454 131.909708,1.19854 28.75907,-12.80416 53.23655,-61.44294 65.85503,-70.04006 m -167.78102,85.2502 c -0.0563,61.10257 -52.193548,53.36904 -77.736534,106.66223 -39.059661,81.49453 1.248726,183.74478 83.439864,209.06219 51.57906,15.88795 180.30452,24.08574 150.55337,-92.65617"
     inkscape:connector-curvature="0"
     sodipodi:nodetypes="cccccccscscscscscccccccccccccccccccccccaccsccccsccscsssscccsscssscsccsccscccsccccsccacccccccccccccccscscscscscscsccscsssssccccscsccacccscsccsccsccsccsccscscsccscsccsccsccsccscccccsccccccssc" />
</svg>
